<svg width="42" height="42" viewBox="0 0 42 42" fill="none" xmlns="http://www.w3.org/2000/svg">
<g id="Group 70">
<g id="Rectangle 8.1" filter="url(#filter0_d_44950_5)">
<rect y="0.216309" width="41.7571" height="41.7571" rx="20.8785" fill="#E3B873"/>
<rect x="-4" y="-3.78369" width="49.7571" height="49.7571" rx="24.8785" stroke="white" stroke-width="8"/>
</g>
<path id="01" d="M17.5727 27.27C16.6007 27.27 15.7187 27.012 14.9267 26.496C14.1347 25.98 13.5047 25.23 13.0367 24.246C12.5807 23.25 12.3527 22.068 12.3527 20.7C12.3527 19.332 12.5807 18.156 13.0367 17.172C13.5047 16.176 14.1347 15.42 14.9267 14.904C15.7187 14.388 16.6007 14.13 17.5727 14.13C18.5447 14.13 19.4267 14.388 20.2187 14.904C21.0107 15.42 21.6347 16.176 22.0907 17.172C22.5587 18.156 22.7927 19.332 22.7927 20.7C22.7927 22.068 22.5587 23.25 22.0907 24.246C21.6347 25.23 21.0107 25.98 20.2187 26.496C19.4267 27.012 18.5447 27.27 17.5727 27.27ZM17.5727 26.91C18.9527 26.91 19.6427 24.84 19.6427 20.7C19.6427 16.56 18.9527 14.49 17.5727 14.49C16.1927 14.49 15.5027 16.56 15.5027 20.7C15.5027 24.84 16.1927 26.91 17.5727 26.91ZM24.8613 27V26.73L26.1213 26.37V16.488L24.2313 17.82L23.8713 17.37L27.1473 14.4H29.0913V26.37L30.3513 26.73V27H24.8613Z" fill="white"/>
</g>
<defs>
<filter id="filter0_d_44950_5" x="-23" y="-17.7837" width="87.757" height="87.7571" filterUnits="userSpaceOnUse" color-interpolation-filters="sRGB">
<feFlood flood-opacity="0" result="BackgroundImageFix"/>
<feColorMatrix in="SourceAlpha" type="matrix" values="0 0 0 0 0 0 0 0 0 0 0 0 0 0 0 0 0 0 127 0" result="hardAlpha"/>
<feOffset dy="5"/>
<feGaussianBlur stdDeviation="7.5"/>
<feColorMatrix type="matrix" values="0 0 0 0 0.890196 0 0 0 0 0.721569 0 0 0 0 0.45098 0 0 0 0.15 0"/>
<feBlend mode="normal" in2="BackgroundImageFix" result="effect1_dropShadow_44950_5"/>
<feBlend mode="normal" in="SourceGraphic" in2="effect1_dropShadow_44950_5" result="shape"/>
</filter>
</defs>
</svg>
